Coordinates
version=1
nRows=11
nColumns=45
inDegrees=yes

Units are S.I. units (second, meters, Newtons, ...)
Angles are in degrees.

endheader
time	pelvis_tilt	pelvis_list	pelvis_rotation	pelvis_tx	pelvis_ty	pelvis_tz	hip_flexion_r	hip_adduction_r	hip_rotation_r	knee_angle_r	knee_adduction_r	knee_angle_r_beta	ankle_angle_r	subtalar_angle_r	mtp_angle_r	hip_flexion_l	hip_adduction_l	hip_rotation_l	knee_angle_l	knee_adduction_l	knee_angle_l_beta	ankle_angle_l	subtalar_angle_l	mtp_angle_l	lumbar_extension	lumbar_bending	lumbar_rotation	thoracic_extension	thoracic_bending	thoracic_rotation	arm_flex_r	arm_add_r	arm_rot_r	elbow_flex_r	pro_sup_r	wrist_flex_r	wrist_dev_r	arm_flex_l	arm_add_l	arm_rot_l	elbow_flex_l	pro_sup_l	wrist_flex_l	wrist_dev_l
      7.14250000	     -1.44464279	     -5.61634161	     -0.15679014	      0.67469012	      0.90874869	      0.49285446	     29.91855730	      5.86281212	     -5.66300135	     31.84424705	      5.06300000	      0.55578696	      6.23695316	     -7.88324504	      1.26475487	     -5.95857213	    -11.06808665	     -7.49902069	     52.61025698	      5.06300000	      0.91822220	    -12.33020339	    -15.38748343	    -20.52518078	     -5.00543225	      8.07294688	     -5.05197189	      0.00000000	      0.00000000	      0.00000000	     -7.45542936	    -11.76449736	     -8.20558982	     23.72142475	     89.99911678	      0.00000000	      0.00000000	      7.83357064	    -18.13374208	      6.80393993	     53.36972884	     89.99945425	      0.00000000	      0.00000000
      7.15314286	     -1.34234225	     -6.40400424	      0.70288671	      0.67591410	      0.91010681	      0.49428879	     28.87806769	      6.54768060	     -6.24654890	     32.13511754	      5.06300000	      0.56086361	      7.52788914	     -8.15290246	      2.22607563	     -3.39396864	    -12.27483041	     -5.63759642	     56.78276692	      5.06300000	      0.99104624	    -12.69087712	    -15.34412313	    -11.32501721	     -4.83934388	      8.82228041	     -5.50256095	      0.00000000	      0.00000000	      0.00000000	     -6.98797613	    -11.55621194	     -7.90135714	     24.07261645	     89.99911678	      0.00000000	      0.00000000	      7.73114763	    -17.67800727	      7.25071998	     51.44583745	     89.99945425	      0.00000000	      0.00000000
      7.16378571	     -1.21511649	     -6.81991372	      1.09990998	      0.67628886	      0.91161226	      0.49570713	     27.83872059	      7.09268986	     -6.26147461	     32.38087752	      5.06300000	      0.56515293	      8.65883244	     -8.48485647	      2.54874914	     -0.99275812	    -12.81137693	     -4.11885647	     60.36183260	      5.06300000	      1.05351272	    -12.96369500	    -15.83896805	     -5.09092894	     -4.87637758	      9.17963971	     -5.47556466	      0.00000000	      0.00000000	      0.00000000	     -6.22491887	    -11.53793570	     -7.63138224	     24.36791196	     89.99911678	      0.00000000	      0.00000000	      7.73174766	    -17.27198092	      7.88042384	     49.87417400	     89.99945425	      0.00000000	      0.00000000
      7.17442857	     -1.25543880	     -7.12348196	      1.54608919	      0.67638830	      0.91318015	      0.49659593	     26.90024940	      7.45091648	     -6.39077732	     32.47989044	      5.06300000	      0.56688103	      9.77789974	     -8.57656837	      2.75965768	      1.64647290	    -13.05590586	     -2.50281740	     63.58551891	      5.06300000	      1.10977666	    -12.62574905	    -16.25868523	     -0.54305224	     -4.72859586	      9.47055629	     -5.53547500	      0.00000000	      0.00000000	      0.00000000	     -5.44985064	    -11.53455260	     -7.24601445	     24.72926967	     89.99911678	      0.00000000	      0.00000000	      7.79163329	    -16.86585726	      8.93903119	     47.91538569	     89.99945425	      0.00000000	      0.00000000
      7.18507143	     -1.10330511	     -7.19162198	      1.90387315	      0.67610896	      0.91529155	      0.49746262	     25.66293470	      7.67532223	     -6.24543387	     32.38006168	      5.06300000	      0.56513869	     10.78778902	     -8.79478280	      2.98841777	      3.99039567	    -12.90644171	     -1.02873548	     66.31824710	      5.06300000	      1.15747177	    -11.80007504	    -16.54233158	      2.25779780	     -4.87111806	      9.46968530	     -5.34858792	      0.00000000	      0.00000000	      0.00000000	     -4.72184163	    -11.51106150	     -6.94934852	     25.27847985	     89.99911678	      0.00000000	      0.00000000	      7.82130020	    -16.45071274	      9.62358643	     46.61347910	     89.99945425	      0.00000000	      0.00000000
      7.19571429	     -0.92795288	     -6.77516188	      1.57986826	      0.67718906	      0.91827763	      0.49888436	     24.17021817	      7.61423697	     -5.57685132	     32.17580570	      5.06300000	      0.56157375	     11.82928016	     -8.37256470	      2.62363350	      5.62161298	    -12.26554230	     -0.61252197	     68.03213546	      5.06300000	      1.18738476	    -10.90175612	    -16.69717798	      2.19544999	     -4.91507057	      8.88263492	     -4.66110866	      0.00000000	      0.00000000	      0.00000000	     -4.31051803	    -11.46188067	     -6.86793383	     25.93465879	     89.99911678	      0.00000000	      0.00000000	      6.93057470	    -16.18078574	      9.71945467	     46.50727061	     89.99945425	      0.00000000	      0.00000000
      7.20635714	     -1.33348563	     -7.01530066	      2.57602005	      0.67496108	      0.91962333	      0.49788146	     23.55741801	      7.59311456	     -6.28487702	     31.82926042	      5.06300000	      0.55552539	     12.55790199	     -8.47026409	      3.12799506	      9.13627628	    -11.85526818	      1.66275049	     70.60116835	      5.06300000	      1.23222284	     -8.79704755	    -16.80812965	      4.17383888	     -4.48517810	      9.25663193	     -4.95629160	      0.00000000	      0.00000000	      0.00000000	     -3.31265943	    -11.75303998	     -6.02247827	     26.51103377	     89.99911678	      0.00000000	      0.00000000	      8.13249540	    -15.50187783	     12.19359533	     42.59983465	     89.99945425	      0.00000000	      0.00000000
      7.21700000	     -1.25410339	     -6.47749039	      2.30853052	      0.67511094	      0.92260130	      0.49870946	     22.13183623	      7.31358081	     -5.73065075	     31.44592084	      5.06300000	      0.54883485	     13.34268367	     -7.99086231	      2.81063923	     10.90641384	    -10.95201735	      1.93360894	     71.70554666	      5.06300000	      1.25149788	     -6.89389522	    -16.68809163	      3.64278490	     -4.53639284	      8.57858451	     -4.25037210	      0.00000000	      0.00000000	      0.00000000	     -2.79957696	    -11.76630541	     -5.95845181	     27.25362917	     89.99911678	      0.00000000	      0.00000000	      7.35782077	    -15.26633374	     12.23135443	     42.67778146	     89.99945425	      0.00000000	      0.00000000
      7.22764286	     -1.12625145	     -6.41972077	      2.95789942	      0.67352345	      0.92548484	      0.49792867	     20.61717852	      7.20279196	     -6.01742536	     30.62039606	      5.06300000	      0.53442673	     13.94315945	     -7.88163185	      3.54795813	     13.23646125	    -10.25344687	      3.26042556	     72.91167199	      5.06300000	      1.27254874	     -4.67943373	    -16.61852189	      3.77338904	     -4.71395181	      8.58014198	     -4.45778398	      0.00000000	      0.00000000	      0.00000000	     -1.63392547	    -11.98337022	     -5.59750751	     28.05213340	     89.99911678	      0.00000000	      0.00000000	      7.48035562	    -14.64904904	     13.14417588	     40.63990093	     89.99945425	      0.00000000	      0.00000000
      7.23828571	     -1.15537490	     -5.90287998	      2.75048920	      0.67265790	      0.92802952	      0.49849289	     19.38260581	      6.85155506	     -5.62982392	     30.21506426	      5.06300000	      0.52735236	     14.52412402	     -7.38092912	      3.22296135	     15.15099896	     -9.35102712	      3.35699098	     73.41032937	      5.06300000	      1.28125195	     -2.45981250	    -16.43100554	      3.11184338	     -4.79853259	      7.93347437	     -3.73620719	      0.00000000	      0.00000000	      0.00000000	     -1.04872400	    -12.03354509	     -5.53968145	     28.79981617	     89.99911678	      0.00000000	      0.00000000	      6.86764895	    -14.46763264	     13.15795717	     40.78290954	     89.99945425	      0.00000000	      0.00000000
      7.24892857	     -1.10698711	     -5.78605651	      2.97881343	      0.67180773	      0.93136872	      0.49776515	     17.69085214	      6.75349806	     -5.72642777	     28.99911360	      5.06300000	      0.50613001	     14.86427436	     -6.87856459	      3.74895314	     17.05405246	     -8.75116705	      3.79460715	     73.49324565	      5.06300000	      1.28269911	     -0.49381347	    -16.35178353	      2.54433353	     -4.79101441	      7.94133153	     -3.45077646	      0.00000000	      0.00000000	      0.00000000	     -0.17586567	    -12.42940312	     -4.94724232	     29.74971480	     89.99911678	      0.00000000	      0.00000000	      7.06566325	    -13.65188795	     14.52416501	     37.97036727	     89.99945425	      0.00000000	      0.00000000
